<?xml version="1.0" encoding="utf-8"?>
<!-- Generator: Adobe Illustrator 18.1.1, SVG Export Plug-In . SVG Version: 6.00 Build 0)  -->
<svg version="1.1" xmlns="http://www.w3.org/2000/svg" xmlns:xlink="http://www.w3.org/1999/xlink" x="0px" y="0px"
	 viewBox="0 0 179.5 185.5" enable-background="new 0 0 179.5 185.5" xml:space="preserve">
<g id="shapes_1_">
	<polygon id="ground" fill="#FF00FF" points="48,131 0,131 34,167 91.5,185.5 158,158.3 179.5,131 	"/>
	<polygon id="log" fill="#F7931E" points="96.8,158 105.1,154.9 141,125.5 141,118 132,114 94,141.5 89,148.4 89.8,158 	"/>
	<polygon id="treeBot" fill="#00FF00" points="48,131 89,131 80,87 54,87 	"/>
	<polygon id="treeMid" fill="#00FFFF" points="53.8,87 47.9,64.2 20.5,52 112,52 84,65.1 80,87 	"/>
	<polygon id="treeTop" fill="#FFFF00" points="20.5,52 0,31.4 20.5,6.7 66.2,0 112,5.7 132,30.1 112,52 	"/>
</g>
<g id="text">
	<text id="treeTopTemp" transform="matrix(1 0 0 1 134.5 19.5287)" font-family="'HelveticaNeue-UltraLight'" font-size="12">0</text>
	<text id="treeMidTemp" transform="matrix(1 0 0 1 103.75 67.0144)" font-family="'HelveticaNeue-UltraLight'" font-size="12">0</text>
	<text id="treeBotTemp" transform="matrix(1 0 0 1 89 102.029)" font-family="'HelveticaNeue-UltraLight'" font-size="12">0</text>
	<text id="logTemp" transform="matrix(1 0 0 1 138.75 112.529)" font-family="'HelveticaNeue-UltraLight'" font-size="12">0</text>
	<text id="groundTemp" transform="matrix(1 0 0 1 7.75 120.529)" font-family="'HelveticaNeue-UltraLight'" font-size="12">0</text>
</g>
</svg>
